<svg width="100" height="100" viewBox="0 0 100 100" fill="none" xmlns="http://www.w3.org/2000/svg">
<rect width="100" height="100" rx="50" fill="white"/>
<rect x="7.5" y="7.5" width="85" height="85" rx="42.5" fill="#0088FF"/>
<path d="M84.0078 65.8145C78.0422 78.6213 65.0595 87.5 50 87.5C48.5629 87.5 47.145 87.4162 45.75 87.2588L37.5732 78.1367C33.4051 73.3328 35.9228 65.7425 42.6152 65.7441L84.0078 65.8145ZM47.0605 18C50.4611 18 53.607 19.36 55.9023 21.5703L67.6338 33.5576C67.8888 33.8977 68.0596 34.323 68.0596 34.748C68.0595 35.768 67.2943 36.533 66.2744 36.5332L47.2305 36.2783C48.4206 39.5939 49.0156 43.4194 49.0156 47.5V48.5205C49.0155 53.0262 46.2953 56.9364 42.4697 58.7217C37.5389 60.847 31.1627 62.7181 24.1064 63.8232C21.1473 64.3005 18.2685 64.6154 15.5303 64.7861C13.5815 60.249 12.5 55.251 12.5 50C12.5 48.3748 12.6032 46.7738 12.8037 45.2031L38.5596 21.3154C40.7699 19.2752 43.7452 18 47.0605 18ZM59.3379 59.9072C60.4523 59.9221 61.3551 60.8282 61.373 61.9443C61.3551 63.0588 60.4523 63.9633 59.3379 63.9766C58.22 63.9635 57.3138 63.0589 57.3008 61.9443C57.3138 60.8297 58.2184 59.9235 59.3379 59.9072ZM53.9385 59.5518C55.0384 59.5664 55.9427 60.471 55.9736 61.5889C55.9427 62.7067 55.0384 63.6126 53.9385 63.624C52.8061 63.6124 51.9033 62.7066 51.9033 61.5889C51.9033 60.4711 52.8077 59.5682 53.9385 59.5518ZM77.3877 53.0059C78.895 52.9961 80.1031 54.214 80.1357 55.749C80.1029 57.2024 78.8949 58.4111 77.3877 58.4014C75.9018 58.411 74.6897 57.2023 74.7383 55.749C74.6894 54.2141 75.9016 52.9962 77.3877 53.0059ZM59.6914 53.9756C60.7993 53.953 61.7021 54.8542 61.7266 56.0127C61.7021 57.0831 60.7993 57.9887 59.6914 57.9629C58.5687 57.989 57.6635 57.0833 57.6553 56.0127C57.6634 54.8541 58.5686 53.9511 59.6914 53.9756ZM54.2939 53.5342C55.4085 53.5749 56.3115 54.4795 56.3311 55.5713C56.3115 56.7103 55.4086 57.6185 54.2939 57.6055C53.1778 57.6185 52.2721 56.7103 52.2607 55.5713C52.2722 54.4795 53.1761 53.575 54.2939 53.5342ZM82.0781 48.2305C83.569 48.2242 84.7825 49.4332 84.8232 50.9697C84.7807 52.423 83.5688 53.6355 82.0781 53.626C80.5774 53.6358 79.3661 52.4231 79.335 50.9697C79.3659 49.4331 80.5773 48.2239 82.0781 48.2305ZM73.4072 48.4053C74.7432 48.4282 75.8425 49.5299 75.8818 50.8838C75.8411 52.2395 74.7417 53.3416 73.4072 53.3613C72.0286 53.3401 70.9316 52.2396 70.9316 50.8838C70.9319 49.5299 72.0288 48.4297 73.4072 48.4053ZM62.6133 48.9375C63.7912 48.8937 64.7428 49.8451 64.7363 51.0557C64.7428 52.1897 63.7912 53.1378 62.6133 53.1836C61.4482 53.138 60.4974 52.1898 60.4893 51.0557C60.4974 49.8449 61.4482 48.8951 62.6133 48.9375ZM56.0635 47.873C57.2122 47.8339 58.1639 48.7855 58.1885 49.9961C58.164 51.1286 57.2123 52.0787 56.0635 52.1211C54.8708 52.0786 53.9228 51.1286 53.9375 49.9961C53.923 48.7856 54.8709 47.8341 56.0635 47.873ZM67.9189 46.7246C69.1311 46.7541 70.1251 47.7491 70.1318 49.0215C70.1253 50.211 69.1312 51.2098 67.9189 51.2344C66.6691 51.2116 65.6699 50.2111 65.709 49.0215C65.6701 47.749 66.6692 46.7556 67.9189 46.7246ZM77.1211 43.4512C78.5694 43.4872 79.7228 44.6402 79.6904 46.1016C79.723 47.4865 78.5696 48.6391 77.1211 48.6719C75.7213 48.6393 74.5651 47.4867 74.5586 46.1016C74.5654 44.6401 75.7215 43.487 77.1211 43.4512ZM60.3154 43.1816C61.513 43.2143 62.5098 44.2137 62.5244 45.4863C62.5111 46.6756 61.5129 47.6698 60.3154 47.6943C59.0511 47.6699 58.0568 46.6773 58.1006 45.4863C58.0566 44.2137 59.0525 43.2142 60.3154 43.1816ZM65.4434 41.2373C66.7046 41.2667 67.7031 42.2674 67.7471 43.5352C67.7031 44.728 66.7046 45.7223 65.4434 45.75C64.2473 45.7239 63.2455 44.728 63.2324 43.5352C63.2438 42.2674 64.2473 41.2683 65.4434 41.2373ZM71.4609 40.793C72.8395 40.8207 73.9395 41.9222 73.9395 43.2715C73.9394 44.6305 72.8395 45.7337 71.4609 45.75C70.1249 45.7335 69.0265 44.6303 68.9824 43.2715C69.0264 41.9224 70.1265 40.8225 71.4609 40.793Z" fill="white"/>
</svg>
