<svg width="100" height="100" viewBox="0 0 100 100" fill="none" xmlns="http://www.w3.org/2000/svg">
<g clip-path="url(#clip0_969_40)">
<rect width="100" height="100" rx="25" fill="url(#paint0_radial_969_40)"/>
<g filter="url(#filter0_d_969_40)">
<path d="M57.4936 31.9428C58.7271 35.3789 59.3438 39.3437 59.3438 43.5728C59.3438 43.9252 59.3438 44.2776 59.3438 44.6301C59.3438 49.2997 56.5245 53.3526 52.5597 55.2028C47.4495 57.4054 40.8416 59.3438 33.5288 60.4892C28.0662 61.3702 22.8679 61.7226 18.2864 61.6345L10.1807 80.6654C9.82826 81.2822 9.21151 81.8108 8.50666 81.8108C8.06613 81.8108 7.6256 81.6346 7.27318 81.3703L-6.38326 70.0927C-6.73568 69.7403 -7 69.2117 -7 68.683C-7 68.0663 -6.73568 67.5376 -6.20704 67.1852L48.5068 16.4361C50.7976 14.3216 53.8813 13 57.3174 13C60.8417 13 64.1016 14.4097 66.4804 16.7005L78.6391 29.1234C78.9034 29.4758 79.0796 29.9164 79.0796 30.3569C79.0796 31.4142 78.2867 32.2071 77.2294 32.2071L57.4936 31.9428Z" fill="white"/>
<path d="M80.0366 111.636H107V62.5735L52.7102 62.4806C45.7743 62.4789 43.1651 70.3453 47.485 75.3239L80.0366 111.636Z" fill="white"/>
<path d="M64.4457 60.2832C65.5856 60.2714 66.5229 59.3324 66.555 58.1739C66.5229 57.0154 65.5856 56.0781 64.4457 56.0629C63.2736 56.0798 62.3364 57.0154 62.3364 58.1739C62.3364 59.3324 63.272 60.2714 64.4457 60.2832Z" fill="white"/>
<path d="M70.0407 60.6482C71.1958 60.6347 72.1314 59.6974 72.15 58.5423C72.1314 57.3854 71.1958 56.4465 70.0407 56.4313C68.8805 56.4481 67.9432 57.3871 67.9297 58.5423C67.9432 59.6974 68.8821 60.6347 70.0407 60.6482Z" fill="white"/>
<path d="M70.4071 54.4164C71.5554 54.4434 72.491 53.5044 72.5164 52.3949C72.491 51.1942 71.5554 50.2602 70.4071 50.2839C69.2435 50.2586 68.3062 51.1942 68.2977 52.3949C68.3062 53.5044 69.2435 54.4434 70.4071 54.4164Z" fill="white"/>
<path d="M64.8138 54.0452C65.969 54.0587 66.9046 53.118 66.9248 51.9375C66.9046 50.806 65.969 49.8688 64.8138 49.8265C63.6553 49.8688 62.718 50.806 62.7062 51.9375C62.718 53.118 63.657 54.0587 64.8138 54.0452Z" fill="white"/>
<path d="M66.6478 48.3622C67.8384 48.3182 68.8247 47.3337 68.85 46.16C68.8247 44.9052 67.8384 43.9189 66.6478 43.9595C65.4116 43.9189 64.4287 44.9052 64.4439 46.16C64.4287 47.3337 65.4116 48.3182 66.6478 48.3622Z" fill="white"/>
<path d="M73.4352 49.4633C74.6562 49.416 75.6424 48.4331 75.6357 47.2577C75.6424 46.0029 74.6562 45.0167 73.4352 45.0623C72.2277 45.0184 71.2431 46.0029 71.2346 47.2577C71.2431 48.4331 72.2277 49.416 73.4352 49.4633Z" fill="white"/>
<path d="M71.0539 43.7737C72.2952 43.7484 73.3304 42.7182 73.344 41.4854C73.3288 40.1664 72.2952 39.1312 71.0539 39.0974C69.7451 39.1312 68.7133 40.1664 68.7589 41.4854C68.7133 42.7199 69.7434 43.7484 71.0539 43.7737Z" fill="white"/>
<path d="M78.9339 47.4433C80.1903 47.418 81.2205 46.3828 81.2273 45.1499C81.2205 43.831 80.1903 42.7991 78.9339 42.7687C77.6386 42.8008 76.6033 43.831 76.6439 45.1499C76.6033 46.3828 77.6386 47.4197 78.9339 47.4433Z" fill="white"/>
<path d="M76.3685 41.7588C77.6757 41.7301 78.7109 40.6999 78.7565 39.4637C78.7109 38.1498 77.6757 37.1129 76.3685 37.0825C75.129 37.1146 74.0887 38.1498 74.0768 39.4637C74.0903 40.6999 75.129 41.7317 76.3685 41.7588Z" fill="white"/>
<path d="M82.6054 41.759C84.0341 41.7421 85.174 40.5987 85.174 39.1903C85.174 37.792 84.0341 36.6503 82.6054 36.6216C81.2222 36.652 80.0823 37.792 80.0367 39.1903C80.0823 40.5987 81.2206 41.7421 82.6054 41.759Z" fill="white"/>
<path d="M84.6218 49.647C86.0049 49.6267 87.1448 48.4851 87.187 47.08C87.1465 45.6766 86.0066 44.535 84.6218 44.5114C83.193 44.5367 82.0565 45.6766 82.0565 47.08C82.0565 48.4851 83.193 49.6251 84.6218 49.647Z" fill="white"/>
<path d="M88.4705 44.7872C89.9719 44.7534 91.1676 43.5594 91.1338 42.1239C91.1676 40.6091 89.9719 39.4134 88.4705 39.3762C87.0199 39.4134 85.8225 40.6091 85.8158 42.1239C85.8225 43.5594 87.0199 44.7534 88.4705 44.7872Z" fill="white"/>
<path d="M93.6078 49.921C95.1531 49.9311 96.4096 48.6746 96.4535 47.1682C96.4112 45.5757 95.1531 44.3226 93.6078 44.3294C92.0524 44.3226 90.7977 45.5757 90.7656 47.1682C90.7977 48.6746 92.0524 49.9311 93.6078 49.921Z" fill="white"/>
<path d="M88.7474 54.8706C90.3096 54.8807 91.561 53.6276 91.5948 52.1212C91.561 50.5304 90.3096 49.2689 88.7474 49.279C87.2073 49.2689 85.9508 50.5304 86.0015 52.1212C85.9508 53.6276 87.2073 54.8807 88.7474 54.8706Z" fill="white"/>
</g>
</g>
<defs>
<filter id="filter0_d_969_40" x="-7" y="13" width="114" height="101.636" filterUnits="userSpaceOnUse" color-interpolation-filters="sRGB">
<feFlood flood-opacity="0" result="BackgroundImageFix"/>
<feColorMatrix in="SourceAlpha" type="matrix" values="0 0 0 0 0 0 0 0 0 0 0 0 0 0 0 0 0 0 127 0" result="hardAlpha"/>
<feOffset dy="3"/>
<feComposite in2="hardAlpha" operator="out"/>
<feColorMatrix type="matrix" values="0 0 0 0 0 0 0 0 0 0 0 0 0 0 0 0 0 0 0.1 0"/>
<feBlend mode="normal" in2="BackgroundImageFix" result="effect1_dropShadow_969_40"/>
<feBlend mode="normal" in="SourceGraphic" in2="effect1_dropShadow_969_40" result="shape"/>
</filter>
<radialGradient id="paint0_radial_969_40" cx="0" cy="0" r="1" gradientUnits="userSpaceOnUse" gradientTransform="translate(50) rotate(90) scale(100)">
<stop stop-color="#55B0FF"/>
<stop offset="1" stop-color="#0088FF"/>
</radialGradient>
<clipPath id="clip0_969_40">
<rect width="100" height="100" rx="25" fill="white"/>
</clipPath>
</defs>
</svg>
